<svg width="40" height="40" viewBox="0 0 40 40" fill="none" xmlns="http://www.w3.org/2000/svg">
<path d="M39.9799 13.1804L38.3025 23.2016C38.0956 24.3086 37.2487 24.9817 36.2719 24.9943H11.8167L11.3311 27.8443H34.6387C35.8659 27.9415 36.6984 28.8468 36.7134 30.0048C36.6241 31.2802 35.7548 32.1495 34.6387 32.1653H8.8591C7.46487 32.0348 6.6335 30.8774 6.78436 29.5911L7.88793 23.3394L6.2105 5.77938L1.44306 4.21655C0.27803 3.73485 -0.19747 2.63733 0.0746298 1.50441C0.527063 0.323689 1.61116 -0.215767 2.67906 0.0793877L8.7708 2.10201C9.59146 2.42236 10.0636 3.12191 10.1834 3.94076L10.5365 7.43437L38.17 10.6521C39.4397 10.9386 40.129 11.9858 39.9799 13.1804ZM15.1757 36.7018C15.1757 38.5233 13.7577 40 12.0085 40C10.2592 40 8.84123 38.5233 8.84123 36.7018C8.84123 34.8802 10.2593 33.4035 12.0085 33.4035C13.7577 33.4035 15.1757 34.8803 15.1757 36.7018ZM34.0841 36.7018C34.0841 38.5233 32.6661 40 30.9168 40C29.1676 40 27.7496 38.5233 27.7496 36.7018C27.7496 34.8802 29.1676 33.4035 30.9168 33.4035C32.6661 33.4035 34.0841 34.8803 34.0841 36.7018Z" fill="#969696"/>
</svg>
