<svg width="42" height="28" viewBox="0 0 42 28" fill="none" xmlns="http://www.w3.org/2000/svg">
<path d="M0.166748 13H10.5834V17.1667H0.166748V13ZM33.8543 16.6458C34.9376 15 35.5834 13.0417 35.5834 10.9167C35.5834 5.16667 30.9167 0.5 25.1667 0.5C19.4167 0.5 14.7501 5.16667 14.7501 10.9167C14.7501 16.6667 19.4167 21.3333 25.1667 21.3333C27.2917 21.3333 29.2501 20.6875 30.9167 19.6042L38.8959 27.5833L41.8334 24.6458L33.8543 16.6458ZM25.1667 17.1667C21.7292 17.1667 18.9167 14.3542 18.9167 10.9167C18.9167 7.47917 21.7292 4.66667 25.1667 4.66667C28.6042 4.66667 31.4167 7.47917 31.4167 10.9167C31.4167 14.3542 28.6042 17.1667 25.1667 17.1667ZM0.166748 2.58333H10.5834V6.75H0.166748V2.58333ZM0.166748 23.4167H21.0001V27.5833H0.166748V23.4167Z" fill="white"/>
</svg>
